HIERARCHY
ROOT Hips
{
	OFFSET 0.00000 0.00000 0.00000
	CHANNELS 6 Xposition Yposition Zposition Zrotation Yrotation Xrotation 
	JOINT LHipJoint
	{
		OFFSET 0 0 0
		CHANNELS 3 Zrotation Yrotation Xrotation
		JOINT LeftUpLeg
		{
			OFFSET 1.62964 -1.40469 0.78906
			CHANNELS 3 Zrotation Yrotation Xrotation
			JOINT LeftLeg
			{
				OFFSET 2.29640 -6.30932 0.00000
				CHANNELS 3 Zrotation Yrotation Xrotation
				JOINT LeftFoot
				{
					OFFSET 2.29451 -6.30412 0.00000
					CHANNELS 3 Zrotation Yrotation Xrotation
					JOINT LeftToeBase
					{
						OFFSET 0.03611 -0.09921 1.56387
						CHANNELS 3 Zrotation Yrotation Xrotation
						End Site
						{
							OFFSET 0.00000 -0.00000 0.80291
						}
					}
				}
			}
		}
	}
	JOINT RHipJoint
	{
		OFFSET 0 0 0
		CHANNELS 3 Zrotation Yrotation Xrotation
		JOINT RightUpLeg
		{
			OFFSET -1.73712 -1.40469 0.78906
			CHANNELS 3 Zrotation Yrotation Xrotation
			JOINT RightLeg
			{
				OFFSET -2.28137 -6.26801 0.00000
				CHANNELS 3 Zrotation Yrotation Xrotation
				JOINT RightFoot
				{
					OFFSET -2.28681 -6.28298 0.00000
					CHANNELS 3 Zrotation Yrotation Xrotation
					JOINT RightToeBase
					{
						OFFSET -0.15927 -0.43759 1.61103
						CHANNELS 3 Zrotation Yrotation Xrotation
						End Site
						{
							OFFSET -0.00000 -0.00000 0.84630
						}
					}
				}
			}
		}
	}
	JOINT LowerBack
	{
		OFFSET 0 0 0
		CHANNELS 3 Zrotation Yrotation Xrotation
		JOINT Spine
		{
			OFFSET -0.04227 2.04338 -0.00225
			CHANNELS 3 Zrotation Yrotation Xrotation
			JOINT Spine1
			{
				OFFSET -0.02148 2.04482 -0.04273
				CHANNELS 3 Zrotation Yrotation Xrotation
				JOINT Neck
				{
					OFFSET 0 0 0
					CHANNELS 3 Zrotation Yrotation Xrotation
					JOINT Neck1
					{
						OFFSET 0.09180 1.44629 0.19359
						CHANNELS 3 Zrotation Yrotation Xrotation
						JOINT Head
						{
							OFFSET 0.00887 1.40645 0.14750
							CHANNELS 3 Zrotation Yrotation Xrotation
							End Site
							{
								OFFSET -0.00669 1.50671 0.03707
							}
						}
					}
				}
				JOINT LeftShoulder
				{
					OFFSET 0 0 0
					CHANNELS 3 Zrotation Yrotation Xrotation
					JOINT LeftArm
					{
						OFFSET 2.17674 1.86763 -0.06520
						CHANNELS 3 Zrotation Yrotation Xrotation
						JOINT LeftForeArm
						{
							OFFSET 4.65776 -0.00000 0.00000
							CHANNELS 3 Zrotation Yrotation Xrotation
							JOINT LeftHand
							{
								OFFSET 3.55539 -0.00000 0.00000
								CHANNELS 3 Zrotation Yrotation Xrotation
								JOINT LeftFingerBase
								{
									OFFSET 0 0 0
									CHANNELS 3 Zrotation Yrotation Xrotation
									JOINT LeftHandIndex1
									{
										OFFSET 0.70726 -0.00000 0.00000
										CHANNELS 3 Zrotation Yrotation Xrotation
										End Site
										{
											OFFSET 0.57022 -0.00000 0.00000
										}
									}
								}
								JOINT LThumb
								{
									OFFSET 0 0 0
									CHANNELS 3 Zrotation Yrotation Xrotation
									End Site
									{
										OFFSET 0.57892 -0.00000 0.57892
									}
								}
							}
						}
					}
				}
				JOINT RightShoulder
				{
					OFFSET 0 0 0
					CHANNELS 3 Zrotation Yrotation Xrotation
					JOINT RightArm
					{
						OFFSET -2.80694 1.55459 -0.32496
						CHANNELS 3 Zrotation Yrotation Xrotation
						JOINT RightForeArm
						{
							OFFSET -4.71925 -0.00000 -0.00000
							CHANNELS 3 Zrotation Yrotation Xrotation
							JOINT RightHand
							{
								OFFSET -3.56990 -0.00000 0.00000
								CHANNELS 3 Zrotation Yrotation Xrotation
								JOINT RightFingerBase
								{
									OFFSET 0 0 0
									CHANNELS 3 Zrotation Yrotation Xrotation
									JOINT RightHandIndex1
									{
										OFFSET -0.50776 -0.00000 0.00000
										CHANNELS 3 Zrotation Yrotation Xrotation
										End Site
										{
											OFFSET -0.40937 -0.00000 0.00000
										}
									}
								}
								JOINT RThumb
								{
									OFFSET 0 0 0
									CHANNELS 3 Zrotation Yrotation Xrotation
									End Site
									{
										OFFSET -0.41562 -0.00000 0.41562
									}
								}
							}
						}
					}
				}
			}
		}
	}
}
MOTION
Frames: 8
Frame Time: .0083333
-1.2388 18.0172 20.9524 0 0 0 0 0 0 -21 0 0 0 0 0 0 0 0 0 0 0 0 0 0 21 0 0 0 0 0 0 0 0 0 0 0 0 0 0 0 0 0 0 0 0 0 0 -16 0 0 21 0 0 11 0 0 0 -8 0 0 0 0 0 0 0 0 0 0 0 0 0 0 0 0 0 0 0 0 8 0 0 0 0 0 0 0 0 0 0 0 0 0 0 0 0 0
-1.2388 18.0172 20.9524 177.2800 -0.5491 -154.7290 0.0000 0.0000 0.0000 -23.3041 -11.8295 -21.0907 0.1355 2.3723 6.5357 -0.1607 -8.4338 -1.7936 1.3772 -7.4263 -20.9845 0.0000 0.0000 0.0000 17.5277 14.3685 -21.9473 -0.3209 -3.6410 10.0689 -1.1031 1.9979 -19.2873 -1.6573 8.1124 -23.0560 -8.0607 -2.3525 -25.0384 0.0196 -1.1074 -0.2785 4.2212 -1.2050 13.9392 -3.5588 2.4201 -3.0678 2.1364 3.5985 10.2039 1.4903 1.8615 3.7580 0.0000 0.0000 0.0000 -82.5897 -2.9729 20.7093 18.8558 -29.2392 -4.9602 -0.0000 0.0000 -7.4545 22.9144 -11.4193 -4.7841 -7.1250 0.0000 -0.0000 -2.9577 17.6211 1.9261 0.0000 0.0000 0.0000 90.3883 -6.8299 9.8956 -17.6511 27.7081 -4.3858 0.0000 -0.0000 -4.7351 -12.5421 -56.9483 10.5624 7.1250 -0.0000 -0.0000 82.7860 -76.5398 -68.8547
-1.2398 18.0176 20.9466 177.4130 -0.4178 -154.7380 0.0000 0.0000 0.0000 -23.1772 -11.7395 -21.0418 0.1326 2.3472 6.4661 -0.1546 -8.3132 -1.8228 1.4412 -7.5896 -21.4744 0.0000 0.0000 0.0000 17.6845 14.4254 -21.9250 -0.3254 -3.6664 10.1400 -1.1120 2.1598 -19.3296 -1.5082 7.7563 -21.9764 -7.9577 -2.2228 -25.0095 -0.0095 -0.9796 -0.3693 4.1760 -1.1352 13.7935 -3.1794 2.1329 -2.1378 1.8800 3.1620 9.4246 1.2851 1.6463 3.3280 0.0000 -0.0000 0.0000 -82.5745 -2.7901 21.2521 18.9429 -29.3476 -5.0028 -0.0000 0.0000 -7.4121 24.7240 -11.0966 -5.0644 -7.1250 0.0000 -0.0000 -1.6734 17.7985 1.0823 0.0000 -0.0000 0.0000 90.4250 -6.8555 9.7698 -17.7747 27.8677 -4.4434 0.0000 -0.0000 -4.6535 -14.3651 -57.0347 12.1270 7.1250 -0.0000 -0.0000 83.3586 -77.1939 -70.1466
-1.2430 18.0168 20.9406 177.4480 -0.3695 -154.7330 0.0000 0.0000 0.0000 -23.1550 -11.7343 -21.0654 0.1363 2.3796 6.5559 -0.1511 -8.3376 -1.9832 1.4849 -7.6987 -21.8027 0.0000 0.0000 0.0000 17.7287 14.3654 -21.9115 -0.3255 -3.6669 10.1414 -1.1170 2.3316 -19.3364 -1.4481 7.6068 -21.5261 -7.9289 -2.1562 -24.8991 -0.0517 -0.9307 -0.5321 4.1296 -1.1027 13.5293 -2.7052 1.8333 -1.1359 1.5261 2.7231 8.6659 1.0407 1.4300 2.8999 0.0000 0.0000 0.0000 -82.5365 -2.3797 21.8155 19.1081 -29.5527 -5.0840 -0.0000 0.0000 -7.4243 26.4721 -10.7262 -5.2951 -7.1250 0.0000 -0.0000 -0.4240 18.0317 0.2720 0.0000 0.0000 0.0000 90.4646 -7.0870 9.7031 -17.9368 28.0762 -4.5195 0.0000 -0.0000 -4.5907 -16.1305 -56.9190 13.6220 7.1250 -0.0000 -0.0000 83.1765 -77.8335 -70.6645
-1.2456 18.0125 20.9327 177.5100 -0.0167 -154.6480 0.0000 0.0000 0.0000 -23.1464 -11.6740 -21.1318 0.1366 2.3822 6.5632 -0.1366 -8.1557 -2.2183 1.5739 -7.9156 -22.4579 0.0000 0.0000 0.0000 17.7314 14.4051 -22.0464 -0.3285 -3.6836 10.1881 -1.1087 2.6544 -19.1942 -1.4737 7.6710 -21.7192 -7.9750 -2.0374 -25.0045 -0.0876 -0.7799 -0.7017 4.1683 -1.0358 13.3649 -2.1423 1.5317 -0.0390 1.0731 2.2888 7.7829 0.7577 1.2142 2.4205 -0.0000 0.0000 0.0000 -82.5676 -1.8823 22.6824 19.1699 -29.6293 -5.1146 -0.0000 0.0000 -6.3583 24.2583 -11.8733 -5.2973 -7.1250 0.0000 -0.0000 -2.0406 16.9991 1.3557 -0.0000 0.0000 0.0000 90.4690 -7.3352 9.6851 -18.0892 28.2712 -4.5914 0.0000 -0.0000 -4.3274 -19.5743 -56.5439 16.5237 7.1250 -0.0000 -0.0000 82.4180 -79.1057 -71.2856
-1.2534 18.0110 20.9200 177.3060 -0.1107 -154.6790 0.0000 0.0000 0.0000 -23.4318 -11.6512 -21.1009 0.1414 2.4232 6.6767 -0.1478 -8.3824 -2.1637 1.5687 -7.9031 -22.4203 0.0000 0.0000 0.0000 17.5313 14.2203 -21.8623 -0.3140 -3.6024 9.9608 -1.1042 2.6277 -19.1598 -1.4271 7.5540 -21.3675 -8.1332 -2.1067 -25.0805 -0.1797 -0.8268 -0.7827 4.1345 -1.0663 13.3176 -2.2394 -1.2623 -1.5363 2.8202 -1.2948 13.0193 1.3180 -0.3614 4.6289 -0.0000 -0.0000 0.0000 -82.5704 -1.4746 23.7490 19.0212 -29.4450 -5.0413 -0.0000 0.0000 -4.2996 20.4700 -13.5502 -4.9984 -7.1250 0.0000 -0.0000 -4.7375 15.5866 3.3018 -0.0000 -0.0000 0.0000 90.5501 -7.4472 9.5099 -18.2368 28.4593 -4.6615 0.0000 -0.0000 -3.9192 -18.1504 -57.2321 15.4112 7.1250 -0.0000 -0.0000 85.3398 -78.5380 -73.5877
-1.2530 18.0004 20.9151 177.3150 -0.0155 -154.2910 0.0000 0.0000 0.0000 -23.4266 -11.4062 -21.7496 0.1506 2.5005 6.8912 -0.1713 -8.7516 -1.9237 1.4706 -7.6633 -21.6960 0.0000 0.0000 0.0000 17.4676 14.4457 -22.2629 -0.3177 -3.6232 10.0190 -1.0974 2.6774 -19.0886 -1.3295 7.3016 -20.6120 -8.1709 -2.0588 -25.5215 -0.2583 -0.7522 -0.9913 4.0881 -1.0428 13.3007 -2.3052 -2.7572 -1.1222 3.8629 -3.3213 14.9194 1.4521 -1.2144 4.7567 0.0000 0.0000 0.0000 -82.4835 -0.7266 26.9629 18.9430 -29.3478 -5.0029 -0.0000 -0.0000 0.7020 27.2146 -9.8023 -5.0035 -7.1250 0.0000 -0.0000 0.1591 18.9854 -0.0987 0.0000 0.0000 0.0000 90.7573 -7.6335 9.1778 -18.5032 28.7967 -4.7892 0.0000 -0.0000 -3.6863 -17.0289 -57.9123 14.5471 7.1250 -0.0000 -0.0000 88.1649 -78.0661 -75.9295
-1.2564 18.0003 20.9032 177.3590 0.0730 -154.3930 0.0000 0.0000 0.0000 -23.4287 -11.3405 -21.5583 0.1475 2.4751 6.8205 -0.1733 -8.7193 -1.8025 1.3450 -7.3424 -20.7339 0.0000 0.0000 0.0000 17.5424 14.3913 -22.1076 -0.3149 -3.6072 9.9741 -1.0892 2.6534 -19.0191 -1.3397 7.3286 -20.6927 -8.1080 -1.9852 -25.5230 -0.3001 -0.6695 -0.9930 4.0340 -0.9996 13.2869 -2.3942 -2.6583 -1.0046 3.9668 -3.2366 14.2672 1.5017 -1.2026 4.5371 -0.0000 0.0000 0.0000 -82.5261 -0.6802 27.1576 18.9012 -29.2958 -4.9824 -0.0000 -0.0000 0.6300 27.2297 -9.7778 -4.9945 -7.1250 0.0000 -0.0000 0.1713 19.0113 -0.1061 -0.0000 0.0000 0.0000 90.7710 -7.5598 9.0244 -18.5968 28.9146 -4.8344 0.0000 -0.0000 -3.5598 -16.6052 -58.1156 14.2096 7.1250 -0.0000 -0.0000 88.9390 -77.8921 -76.5294
